<svg width="737" height="275" viewBox="0 0 737 275" fill="none" xmlns="http://www.w3.org/2000/svg">
<path d="M737 -57C737 -13.4011 727.468 29.7708 708.95 70.0509C690.431 110.331 663.287 146.93 629.069 177.759C594.85 208.589 554.227 233.043 509.519 249.728C464.81 266.413 416.892 275 368.5 275C320.108 275 272.19 266.413 227.481 249.728C182.773 233.043 142.15 208.589 107.931 177.759C73.7127 146.93 46.5692 110.331 28.0504 70.0509C9.53153 29.7708 -4.23057e-06 -13.4012 0 -57L368.5 -57H737Z" fill="url(#paint0_linear_1_241)"/>
<defs>
<linearGradient id="paint0_linear_1_241" x1="114" y1="177.5" x2="737" y2="-1.5" gradientUnits="userSpaceOnUse">
<stop stop-color="#FC563A"/>
<stop offset="1" stop-color="#FFE145"/>
</linearGradient>
</defs>
</svg>
